<svg width="58" height="58" viewBox="0 0 58 58" fill="none" xmlns="http://www.w3.org/2000/svg">
<path d="M24.215 57.71C10.44 55.245 0 43.355 0 29C0 13.05 13.05 0 29 0C44.95 0 58 13.05 58 29C58 43.355 47.56 55.245 33.785 57.71L32.19 56.405H25.81L24.215 57.71Z" fill="url(#paint0_linear_983_2)"/>
<path d="M40.31 37.1201L41.615 29.0001H33.93V23.3451C33.93 21.0251 34.8 19.2851 38.28 19.2851H42.05V11.8901C40.02 11.6001 37.7 11.3101 35.67 11.3101C29 11.3101 24.36 15.3701 24.36 22.6201V29.0001H17.11V37.1201H24.36V57.5651C25.955 57.8551 27.55 58.0001 29.145 58.0001C30.74 58.0001 32.335 57.8551 33.93 57.5651V37.1201H40.31Z" fill="white"/>
<defs>
<linearGradient id="paint0_linear_983_2" x1="29.0014" y1="55.9829" x2="29.0014" y2="-0.0106833" gradientUnits="userSpaceOnUse">
<stop stop-color="#0062E0"/>
<stop offset="1" stop-color="#19AFFF"/>
</linearGradient>
</defs>
</svg>
