<svg width="52" height="52" viewBox="0 0 52 52" fill="none" xmlns="http://www.w3.org/2000/svg">
<path d="M26.0126 0.394043C15.3206 0.394043 12.1936 0.405073 11.5858 0.455498C9.39161 0.637891 8.02626 0.983376 6.53879 1.72398C5.39246 2.29322 4.4884 2.95307 3.59615 3.87804C1.9712 5.56489 0.986383 7.64016 0.629878 10.107C0.45655 11.3046 0.406127 11.5488 0.395885 17.6659C0.391946 19.705 0.395885 22.3885 0.395885 25.9879C0.395885 36.6715 0.407703 39.7955 0.458914 40.4021C0.636181 42.5373 0.97102 43.8806 1.68009 45.35C3.0352 48.1627 5.6233 50.2743 8.6723 51.0621C9.72803 51.3339 10.8941 51.4836 12.391 51.5546C13.0252 51.5821 19.4896 51.6018 25.9578 51.6018C32.4261 51.6018 38.8944 51.5939 39.5129 51.5624C41.2462 51.4809 42.2527 51.3458 43.3655 51.0582C46.4342 50.2664 48.975 48.1864 50.3577 45.3343C51.053 43.9003 51.4056 42.5058 51.5651 40.4821C51.5998 40.0409 51.6143 33.0063 51.6143 25.9812C51.6143 18.9549 51.5986 11.9333 51.5639 11.4921C51.4024 9.43574 51.0498 8.05301 50.3321 6.5915C49.7432 5.3951 49.0893 4.50165 48.1399 3.5881C46.4456 1.9698 44.3736 0.984952 41.9044 0.628831C40.7081 0.455891 40.4697 0.404679 34.3481 0.394043H26.0126Z" fill="url(#paint0_radial_983_5)"/>
<path d="M26.0126 0.394043C15.3206 0.394043 12.1936 0.405073 11.5858 0.455498C9.39161 0.637891 8.02626 0.983376 6.53879 1.72398C5.39246 2.29322 4.4884 2.95307 3.59615 3.87804C1.9712 5.56489 0.986383 7.64016 0.629878 10.107C0.45655 11.3046 0.406127 11.5488 0.395885 17.6659C0.391946 19.705 0.395885 22.3885 0.395885 25.9879C0.395885 36.6715 0.407703 39.7955 0.458914 40.4021C0.636181 42.5373 0.97102 43.8806 1.68009 45.35C3.0352 48.1627 5.6233 50.2743 8.6723 51.0621C9.72803 51.3339 10.8941 51.4836 12.391 51.5546C13.0252 51.5821 19.4896 51.6018 25.9578 51.6018C32.4261 51.6018 38.8944 51.5939 39.5129 51.5624C41.2462 51.4809 42.2527 51.3458 43.3655 51.0582C46.4342 50.2664 48.975 48.1864 50.3577 45.3343C51.053 43.9003 51.4056 42.5058 51.5651 40.4821C51.5998 40.0409 51.6143 33.0063 51.6143 25.9812C51.6143 18.9549 51.5986 11.9333 51.5639 11.4921C51.4024 9.43574 51.0498 8.05301 50.3321 6.5915C49.7432 5.3951 49.0893 4.50165 48.1399 3.5881C46.4456 1.9698 44.3736 0.984952 41.9044 0.628831C40.7081 0.455891 40.4697 0.404679 34.3481 0.394043H26.0126Z" fill="url(#paint1_radial_983_5)"/>
<path d="M26.0008 7.09082C20.8656 7.09082 20.2211 7.11328 18.2042 7.20506C16.1912 7.29724 14.8172 7.61594 13.6149 8.08355C12.3713 8.56652 11.3164 9.21258 10.2654 10.264C9.21357 11.315 8.56753 12.37 8.083 13.6133C7.61423 14.816 7.29515 16.1904 7.20454 18.2027C7.11433 20.2196 7.0907 20.8645 7.0907 25.9999C7.0907 31.1353 7.11355 31.7778 7.20494 33.7948C7.29751 35.8078 7.6162 37.1819 8.0834 38.3842C8.56674 39.6279 9.21279 40.6828 10.2642 41.7339C11.3148 42.7857 12.3697 43.4333 13.6126 43.9163C14.8156 44.3839 16.19 44.7026 18.2026 44.7948C20.2195 44.8865 20.8636 44.909 25.9984 44.909C31.1341 44.909 31.7766 44.8865 33.7935 44.7948C35.8064 44.7026 37.182 44.3839 38.3851 43.9163C39.6283 43.4333 40.6817 42.7857 41.7323 41.7339C42.7841 40.6828 43.4301 39.6279 43.9146 38.3846C44.3795 37.1819 44.6986 35.8074 44.7931 33.7952C44.8837 31.7782 44.9073 31.1353 44.9073 25.9999C44.9073 20.8645 44.8837 20.22 44.7931 18.2031C44.6986 16.19 44.3795 14.816 43.9146 13.6137C43.4301 12.37 42.7841 11.315 41.7323 10.264C40.6805 9.21218 39.6287 8.56612 38.3839 8.08355C37.1785 7.61594 35.8037 7.29724 33.7907 7.20506C31.7738 7.11328 31.1317 7.09082 25.9949 7.09082H26.0008ZM24.3045 10.4984C24.808 10.4976 25.3697 10.4984 26.0008 10.4984C31.0494 10.4984 31.6477 10.5165 33.6414 10.6071C35.485 10.6914 36.4856 10.9995 37.1521 11.2583C38.0345 11.601 38.6636 12.0107 39.325 12.6725C39.9868 13.3344 40.3965 13.9647 40.74 14.8471C40.9988 15.5129 41.3072 16.5135 41.3911 18.3571C41.4817 20.3504 41.5014 20.9492 41.5014 25.9956C41.5014 31.0419 41.4817 31.6407 41.3911 33.6341C41.3068 35.4777 40.9988 36.4783 40.74 37.1441C40.3973 38.0265 39.9868 38.6548 39.325 39.3162C38.6632 39.9781 38.0349 40.3878 37.1521 40.7305C36.4863 40.9905 35.485 41.2978 33.6414 41.3821C31.6481 41.4727 31.0494 41.4924 26.0008 41.4924C20.9518 41.4924 20.3534 41.4727 18.3602 41.3821C16.5166 41.297 15.516 40.9889 14.8491 40.7301C13.9667 40.3874 13.3364 39.9777 12.6746 39.3159C12.0128 38.654 11.6031 38.0253 11.2596 37.1425C11.0008 36.4767 10.6924 35.4761 10.6085 33.6325C10.5179 31.6392 10.4997 31.0404 10.4997 25.9909C10.4997 20.9413 10.5179 20.3457 10.6085 18.3524C10.6928 16.5087 11.0008 15.5081 11.2596 14.8416C11.6023 13.9592 12.0128 13.3289 12.6746 12.667C13.3364 12.0052 13.9667 11.5955 14.8491 11.252C15.5156 10.992 16.5166 10.6847 18.3602 10.6C20.1045 10.5212 20.7805 10.4976 24.3045 10.4937V10.4984ZM36.094 13.6381C34.8413 13.6381 33.825 14.6533 33.825 15.9064C33.825 17.1591 34.8413 18.1755 36.094 18.1755C37.3467 18.1755 38.363 17.1591 38.363 15.9064C38.363 14.6537 37.3467 13.6373 36.094 13.6373V13.6381ZM26.0008 16.2893C20.6383 16.2893 16.2905 20.6372 16.2905 25.9999C16.2905 31.3626 20.6383 35.7085 26.0008 35.7085C31.3633 35.7085 35.7095 31.3626 35.7095 25.9999C35.7095 20.6372 31.3629 16.2893 26.0004 16.2893H26.0008ZM26.0008 19.6969C29.4815 19.6969 32.3036 22.5187 32.3036 25.9999C32.3036 29.4808 29.4815 32.3029 26.0008 32.3029C22.5197 32.3029 19.698 29.4808 19.698 25.9999C19.698 22.5187 22.5197 19.6969 26.0008 19.6969V19.6969Z" fill="white"/>
<defs>
<radialGradient id="paint0_radial_983_5" cx="0" cy="0" r="1" gradientUnits="userSpaceOnUse" gradientTransform="translate(13.9996 55.5459) rotate(-90) scale(50.7507 47.2136)">
<stop stop-color="#FFDD55"/>
<stop offset="0.1" stop-color="#FFDD55"/>
<stop offset="0.5" stop-color="#FF543E"/>
<stop offset="1" stop-color="#C837AB"/>
</radialGradient>
<radialGradient id="paint1_radial_983_5" cx="0" cy="0" r="1" gradientUnits="userSpaceOnUse" gradientTransform="translate(-8.18552 4.08297) rotate(78.678) scale(22.686 93.5335)">
<stop stop-color="#3771C8"/>
<stop offset="0.128" stop-color="#3771C8"/>
<stop offset="1" stop-color="#6600FF" stop-opacity="0"/>
</radialGradient>
</defs>
</svg>
